<?xml version="1.0" standalone="no"?>
<!DOCTYPE svg PUBLIC "-//W3C//DTD SVG 20010904//EN"
 "http://www.w3.org/TR/2001/REC-SVG-20010904/DTD/svg10.dtd">
<svg version="1.0" xmlns="http://www.w3.org/2000/svg"
 width="512.000000pt" height="512.000000pt" viewBox="0 0 512.000000 512.000000"
 preserveAspectRatio="xMidYMid meet">

<g transform="translate(0.000000,512.000000) scale(0.100000,-0.100000)"
fill="#000000" stroke="none">
<path d="M1439 4495 c-602 -344 -1104 -637 -1117 -651 l-22 -25 2 -1249 c3
-1235 3 -1250 23 -1269 37 -35 2208 -1301 2232 -1301 13 0 37 7 54 15 90 47
2167 1270 2184 1286 20 19 20 34 23 1269 l2 1249 -22 26 c-33 37 -2204 1275
-2237 1275 -18 0 -422 -226 -1122 -625z m1622 -402 c272 -405 495 -740 497
-744 2 -5 -130 -9 -293 -11 l-297 -3 -29 -33 c-34 -38 -37 -74 -9 -119 11 -18
21 -34 22 -35 2 -1 144 -5 315 -8 l313 -5 -505 -875 c-278 -481 -510 -875
-515 -875 -5 0 -237 394 -515 875 l-505 875 313 5 c171 3 313 7 315 8 1 1 11
17 22 35 28 45 25 81 -9 119 l-29 33 -297 3 c-163 2 -295 7 -293 11 8 21 992
1481 998 1481 4 0 229 -331 501 -737z m-838 604 c-16 -25 -574 -857 -730
-1089 l-160 -237 -363 207 c-355 201 -363 206 -340 221 43 29 1585 910 1593
910 4 1 4 -5 0 -12z m1475 -443 c438 -250 801 -459 805 -464 7 -6 -301 -186
-663 -388 l-55 -31 -435 650 c-239 357 -441 658 -449 669 -7 11 -11 20 -7 20
3 0 365 -205 804 -456z m-2837 -845 c195 -110 357 -204 362 -208 6 -6 -700
-1391 -718 -1409 -3 -3 -5 405 -5 906 0 502 2 912 4 912 1 0 162 -90 357 -201z
m3757 -1166 l-3 -456 -360 698 c-198 385 -360 703 -360 708 0 5 162 101 360
213 l360 205 3 -456 c1 -250 1 -660 0 -912z m-2745 -84 c273 -474 495 -864
492 -867 -3 -3 -384 30 -847 72 -1042 96 -959 87 -956 97 11 28 804 1559 808
1559 3 0 229 -388 503 -861z m2285 79 c221 -429 401 -782 399 -784 -5 -6
-1797 -167 -1802 -162 -6 5 986 1728 995 1728 3 0 186 -352 408 -782z m-2494
-1088 c420 -38 770 -70 779 -70 16 0 17 -35 17 -400 0 -220 -2 -400 -4 -400
-3 0 -290 167 -638 371 -348 204 -703 412 -788 462 -177 103 -182 107 -151
107 12 0 366 -31 785 -70z m2591 61 c-12 -10 -1584 -931 -1590 -931 -3 0 -5
180 -5 400 l0 400 33 1 c17 0 358 31 757 68 759 72 820 76 805 62z"/>
<path d="M2524 3331 c-30 -13 -64 -59 -64 -88 0 -32 26 -80 49 -93 11 -5 34
-10 51 -10 42 0 67 15 85 50 22 43 18 76 -12 110 -30 32 -75 45 -109 31z"/>
</g>
</svg>
